<svg xmlns="http://www.w3.org/2000/svg">
    <symbol id="download" viewBox="0 0 192 192">
        <path d="M63.8862 161V156.071H127.886V161H63.8862ZM93.4246 23H98.3477V135.371L125.277 108.363L128.772 111.813L100.957 139.709L98.3477 137.146V141.286H93.4246V137.146L90.8154 139.709L63 111.862L66.4462 108.363L93.4246 135.322V23Z"/>
    </symbol>
    <symbol id="place" viewBox="0 0 512 512">
        <g>
            <g>
                <path d="M425.951,89.021C386.864,32.451,324.917,0,256.006,0S125.148,32.451,86.061,89.021
			c-38.895,56.284-47.876,127.541-24.072,190.496c6.367,17.192,16.488,33.895,30.01,49.547l150.378,176.634
			c3.401,3.998,8.384,6.302,13.629,6.302c5.245,0,10.228-2.303,13.629-6.302l150.336-176.586
			c13.582-15.742,23.69-32.427,30.004-49.481C473.827,216.562,464.846,145.305,425.951,89.021z M416.451,267.093
			c-4.869,13.158-12.818,26.167-23.613,38.68c-0.03,0.03-0.06,0.06-0.084,0.096L256.006,466.487L119.174,305.768
			c-10.789-12.502-18.738-25.51-23.655-38.794c-19.686-52.065-12.215-110.981,19.991-157.592
			c32.307-46.76,83.519-73.578,140.496-73.578c56.976,0,108.182,26.817,140.49,73.578
			C428.708,155.993,436.185,214.909,416.451,267.093z"/>
            </g>
        </g>
        <g>
            <g>
                <path d="M256.006,106.219c-55.276,0-100.252,44.97-100.252,100.252s44.97,100.252,100.252,100.252s100.252-44.97,100.252-100.252
			C356.258,151.195,311.282,106.219,256.006,106.219z M256.006,270.918c-35.536,0-64.448-28.912-64.448-64.448
			c0-35.536,28.912-64.448,64.448-64.448c35.536,0,64.448,28.912,64.448,64.448S291.542,270.918,256.006,270.918z"/>
            </g>
        </g>
    </symbol>
    <symbol id="phone" viewBox="0 0 12 12">
        <path d="M10.63 7.14c-.5-.07-.99-.19-1.46-.36a1.6 1.6 0 0 0-1.68.36l-.44.43a8.38 8.38 0 0 1-2.64-2.63l.44-.44c.44-.44.58-1.1.36-1.68-.18-.46-.3-.95-.36-1.45A1.6 1.6 0 0 0 3.25 0H1.59A1.6 1.6 0 0 0 .37.57a1.58 1.58 0 0 0-.36 1.17 11.48 11.48 0 0 0 5.25 8.48A11.53 11.53 0 0 0 10.41 12 1.59 1.59 0 0 0 12 10.4V8.75a1.6 1.6 0 0 0-1.37-1.61z"></path>
    </symbol>
    <symbol id="next" viewBox="0 0 17 11">
        <path d="M0 6V5h14.54l-3.75-3.74.71-.71 4.24 4.24.21.21H16v.05l.45.45-.45.45V6h-.05l-4.45 4.45-.7-.7L14.53 6z"></path>
    </symbol>
    <symbol id="close2" viewBox="0 0 512 512">
        <g>
            <g>
                <path d="M505.943,6.058c-8.077-8.077-21.172-8.077-29.249,0L6.058,476.693c-8.077,8.077-8.077,21.172,0,29.249
			C10.096,509.982,15.39,512,20.683,512c5.293,0,10.586-2.019,14.625-6.059L505.943,35.306
			C514.019,27.23,514.019,14.135,505.943,6.058z"/>
            </g>
        </g>
        <g>
            <g>
                <path d="M505.942,476.694L35.306,6.059c-8.076-8.077-21.172-8.077-29.248,0c-8.077,8.076-8.077,21.171,0,29.248l470.636,470.636
			c4.038,4.039,9.332,6.058,14.625,6.058c5.293,0,10.587-2.019,14.624-6.057C514.018,497.866,514.018,484.771,505.942,476.694z"/>
            </g>
        </g>
    </symbol>
    <symbol id="facebook" viewBox="0 0 602 602">
        <path d="M236.741 178.887C236.741 188.892 236.741 233.546 236.741 233.546H196.696V300.383H236.741V499H319.002V300.389H374.202C374.202 300.389 379.372 268.341 381.878 233.3C374.694 233.3 319.313 233.3 319.313 233.3C319.313 233.3 319.313 194.416 319.313 187.6C319.313 180.77 328.282 171.582 337.146 171.582C345.994 171.582 364.669 171.582 381.965 171.582C381.965 162.482 381.965 131.04 381.965 102.001C358.875 102.001 332.606 102.001 321.027 102.001C234.708 101.996 236.741 168.9 236.741 178.887Z"/>
    </symbol>
    <symbol id="evis-logo" viewBox="0 0 420 421">
        <path fill-rule="evenodd" clip-rule="evenodd" d="M60.1841 320.26C69.4433 329.89 72.1331 331.396 81.2765 339.009C73.5803 335.905 64.1393 327.657 57.6113 322.017C50.5367 315.906 43.3679 311.278 41.1893 297.939L55.1069 315.354C56.6477 317.175 58.5227 318.532 60.1841 320.26ZM259.788 362.23C267.225 359.416 275.705 357.047 283.682 353.946C305.465 345.48 328.19 332.56 344.984 318.562C357.466 308.158 366.395 298.687 376.543 285.11C391.097 265.636 390.766 256.581 397.889 242.37C397.331 258.126 388.208 279.727 381.708 291.126C365.829 318.972 340.733 337.996 311.105 349.665C299.451 354.255 273.538 362.173 259.787 362.229L259.788 362.23ZM303.361 336.922C306.196 335.998 313.976 330.01 317.427 327.679C330.061 319.145 345.949 305.136 355.29 293.025C367.526 277.161 374.497 266.796 381.653 246.858C382.411 244.747 383.614 239.116 384.881 237.621C385.994 236.309 390.973 233.942 392.393 233.352C388.851 257.683 369.895 285.257 352.126 302.374C338.237 315.754 321.671 329.277 303.361 336.922ZM148.817 358.945C133.306 358.118 107.243 346.362 95.8139 339.626C83.4287 332.326 74.6021 324.94 65.1785 315.265C63.6701 313.717 62.0087 312.472 60.5081 310.792C54.6347 304.215 46.3919 292.53 41.7821 284.512C35.4377 273.478 34.6985 272.122 32.6027 257.844C29.3423 235.633 27.0293 213.144 30.0677 190.943C31.5317 215.394 31.5539 231.804 38.2121 254.715C51.1397 299.197 82.1615 329.735 123.391 348.744C131.718 352.584 140.81 355.413 148.817 358.945ZM375.775 241.302C372.037 260.402 354.764 282.628 343.303 296.051C318.034 325.639 270.016 348.908 231.364 357.431C200.212 364.3 188.011 362.755 158.598 354.327C86.0633 333.543 43.2497 286.6 38.3369 215.742C36.6209 190.992 34.9967 159.887 46.4123 139.974C66.4865 104.957 97.0025 76.7678 138.363 58.6178C208.01 28.0556 279.041 42.5924 337.549 86.2352C341.512 89.1914 345.825 92.6312 349.64 95.8232L360.838 106.266C373.361 124.785 383.019 191.453 381.181 214.927C380.753 220.399 379.979 224.607 379.466 227.86C377.011 243.452 331.414 244.149 313.447 257.069C280.465 280.785 317.419 263.645 347.878 251.829C365.424 245.023 377.417 236.831 375.775 241.302ZM396.066 206.629C395.777 218.925 396.329 223.297 386.8 227.623C390.113 200.664 387.475 182.226 382.996 155.844C381.822 148.926 379.492 140.643 378.817 134.057C383.842 140.07 393.43 168.277 394.66 178.284C395.723 186.929 396.271 197.881 396.066 206.629ZM29.6771 288.316C24.6995 281.601 16.7987 260.48 14.7491 253.255C3.12169 212.263 3.97369 154.031 25.3103 119.394C24.3143 125.457 18.0629 141.187 15.0287 159.391C12.3851 175.25 11.4695 191.064 11.9927 207.433C13.4975 254.518 27.9809 262.597 31.4315 290.28L29.6771 288.316ZM399.564 160.069C394.841 132.825 385.261 109.749 369.834 88.124C361.813 76.88 354.531 70.4894 345.605 61.6808C362.693 71.4482 387.731 99.7328 397.321 118.122C403.385 129.748 408.799 143.455 411.2 158.398C413.045 169.886 413.159 196.9 406.354 204.544L399.564 160.069ZM57.2951 110.753C60.6797 102.54 72.0395 88.7876 77.7293 83.807C81.6317 80.3912 82.1165 78.7538 90.2081 72.1268C109.018 56.7224 149.626 39.6614 175.369 39.3032C145.454 47.5652 135.062 50.3906 108.008 66.5738L87.0791 81.4826C73.1867 92.5682 67.6619 100.56 57.2951 110.753ZM22.2785 232.73C15.8651 220.561 19.9067 170.932 22.9019 155.666C27.3065 133.214 34.9133 112.078 45.2651 94.6604C53.9027 80.1272 76.4327 65.564 91.5749 56.8304C108.368 47.144 129.458 37.4066 149.871 31.8092C173.22 25.4066 199.92 22.2656 225.521 22.844C245.407 23.2934 281.093 27.8612 295.905 36.2204C310.597 44.5118 332.482 59.6624 344.651 70.79C356.933 82.0202 373.859 102.555 379.303 118.94C377.338 115.529 373.358 110.157 370.847 107.11C361.198 95.4002 360.641 88.1708 343.156 73.952C294.439 34.3364 211.15 21.0302 149.689 36.5306C130.231 41.438 106.138 51.1676 92.7341 61.298C76.7597 73.3706 64.8875 84.8564 53.3789 102.795C41.4833 121.337 41.0999 129.178 35.1185 146.221C33.4253 151.045 31.2005 155.418 29.3627 160.482C20.3423 185.341 21.6485 205.164 22.2785 232.73ZM71.5661 60.6224C74.9615 56.3 82.3475 49.9754 87.4271 46.0082C120.385 20.2694 157.757 6.34098 201.354 7.85358C210.706 8.17818 219.875 9.21138 228.781 10.9136C233.56 11.8268 246.739 14.534 251.339 16.8584L252.527 17.5994C232.703 16.5494 217.593 14.978 197.19 16.5338C162.523 19.1768 138.155 26.3 107.682 40.412C90.2981 48.4628 82.4687 55.1066 71.5661 60.6224ZM49.7651 325.059C53.8877 327.544 63.2435 337.429 80.6801 347.284C113.12 365.619 152.089 373.074 189.687 372.568C198.412 372.451 207.972 370.93 216.353 371.328C260.592 373.427 310.197 363.814 345.478 339.9C358.286 331.218 364.721 324.439 373.952 314.183C392.725 293.326 406.111 260.019 406.685 225.739C406.934 210.924 411.557 218.275 417.067 196.425C421.01 180.786 420.089 163.705 416.449 148.257C404.024 95.5232 358.232 54.7964 313.941 34.8308C307.703 32.0186 301.018 30.08 294.789 27.3272C272.774 17.5958 265.241 11.2808 236.099 5.13738C181.729 -6.32442 131.845 4.42639 88.4459 36.182C78.6647 43.3388 68.3375 53.12 60.0665 61.9658C50.1569 72.5636 47.4029 80.4896 36.3665 91.6094C32.5409 95.4638 27.7835 101.946 24.3803 107.134C8.67589 131.076 0.792488 155.898 0.403088 190.762C-0.566512 277.544 33.9659 302.02 38.1605 313.912C49.6505 346.49 58.4693 367.105 80.4845 393.306C152.038 478.461 52.4075 335.508 49.7639 325.059L49.7651 325.059Z" fill="black"/>
        <path fill-rule="evenodd" clip-rule="evenodd" d="M67.9131 208.714V120.676H120.901V134.751H84.7479V156.553H119.245V170.215H84.7479V194.639H120.901V208.714H67.9131V208.714ZM180.168 208.714H158.205L131.296 120.676H150.087L165.013 173.687L169.796 191.074L174.787 172.675L189.529 120.675H207.192L180.168 208.713V208.714ZM238.699 153.103H219.381V140.27H255.534V195.88H275.267V208.713H217.035V195.88H238.699V153.103L238.699 153.103ZM351.829 182.082C351.829 186.888 350.932 191.051 349.161 194.593C347.39 198.157 344.907 201.078 341.733 203.401C338.536 205.701 334.741 207.426 330.348 208.552C325.933 209.679 321.149 210.231 315.928 210.231C311.306 210.231 306.844 209.955 302.521 209.427C298.22 208.897 293.965 208.023 289.734 206.782V190.361C291.804 191.097 293.943 191.764 296.196 192.408C298.428 193.029 300.681 193.603 302.958 194.064C305.235 194.547 307.488 194.915 309.719 195.19C311.973 195.466 314.134 195.604 316.251 195.604C319.402 195.604 322.069 195.328 324.254 194.799C326.462 194.247 328.256 193.512 329.635 192.546C331.038 191.603 332.05 190.476 332.671 189.165C333.292 187.854 333.614 186.405 333.614 184.842C333.614 182.68 332.993 180.863 331.751 179.414C330.532 177.965 328.899 176.654 326.875 175.55C324.852 174.423 322.552 173.411 319.976 172.515C317.377 171.618 314.755 170.652 312.087 169.617C309.42 168.582 306.798 167.409 304.199 166.098C301.623 164.81 299.323 163.2 297.299 161.268C295.275 159.336 293.643 157.036 292.423 154.345C291.181 151.678 290.56 148.458 290.56 144.686C290.56 141.236 291.181 137.947 292.446 134.842C293.711 131.761 295.689 129.047 298.38 126.747C301.071 124.425 304.521 122.584 308.752 121.204C312.984 119.847 318.066 119.158 324.046 119.158C325.794 119.158 327.634 119.227 329.542 119.388C331.451 119.548 333.337 119.755 335.2 120.009C337.063 120.238 338.857 120.537 340.582 120.883C342.33 121.205 343.917 121.549 345.343 121.918V137.097C343.917 136.545 342.33 136.062 340.628 135.602C338.926 135.165 337.155 134.751 335.338 134.429C333.522 134.084 331.682 133.831 329.842 133.647C328.002 133.463 326.254 133.371 324.598 133.371C321.678 133.371 319.217 133.601 317.193 134.084C315.169 134.544 313.513 135.211 312.202 136.039C310.891 136.867 309.948 137.879 309.373 139.098C308.798 140.317 308.499 141.651 308.499 143.145C308.499 144.985 309.12 146.572 310.362 147.883C311.58 149.217 313.236 150.412 315.261 151.447C317.307 152.506 319.63 153.495 322.206 154.414C324.805 155.334 327.45 156.323 330.163 157.381C332.877 158.439 335.522 159.635 338.121 160.992C340.697 162.326 343.02 163.982 345.067 165.914C347.091 167.846 348.747 170.123 349.966 172.744C351.208 175.366 351.828 178.471 351.828 182.082H351.829Z" fill="black"/>
        <path fill-rule="evenodd" clip-rule="evenodd" d="M256.957 121.564C256.957 123.059 256.681 124.462 256.152 125.749C255.6 127.06 254.865 128.21 253.899 129.176C252.91 130.142 251.783 130.901 250.472 131.453C249.185 132.028 247.758 132.304 246.24 132.304C244.7 132.304 243.274 132.028 241.94 131.453C240.606 130.901 239.479 130.142 238.514 129.176C237.525 128.21 236.789 127.06 236.237 125.749C235.707 124.462 235.431 123.059 235.431 121.564C235.431 120.092 235.707 118.689 236.237 117.401C236.789 116.09 237.524 114.94 238.514 113.951C239.479 112.962 240.606 112.18 241.94 111.628C243.274 111.053 244.7 110.777 246.24 110.777C247.758 110.777 249.185 111.053 250.472 111.628C251.783 112.18 252.91 112.961 253.899 113.951C254.865 114.94 255.6 116.09 256.152 117.401C256.681 118.688 256.957 120.092 256.957 121.564Z" fill="#EC691F"/>
        <path d="M126.157 253.017C121.69 266.37 115.336 273.038 107.11 273.038C99.2934 273.038 95.3928 267.565 95.3928 256.602C95.3928 252.859 95.8644 249.006 96.8238 245.058C97.7358 241.064 99.183 237.367 101.149 233.939C103.115 230.526 105.647 227.742 108.714 225.587C111.765 223.496 115.304 222.457 119.362 222.457C121.862 222.457 125.008 223.385 128.814 225.257C128.814 224.14 129.239 223.589 130.104 223.589H139.195C140.201 223.589 140.705 224.093 140.705 225.115L140.531 229.44L138.031 273.808C137.795 280.225 135.278 284.817 130.528 287.57C125.794 290.338 119.927 291.722 112.96 291.722C111.545 291.722 109.437 291.565 106.638 291.234C103.838 290.92 101.322 290.354 99.0726 289.551C96.8706 288.797 95.754 287.742 95.754 286.422C95.6442 286.422 95.5812 286.06 95.5812 285.321C95.5812 283.842 95.7228 282.411 95.9898 281.012C96.273 279.612 96.6978 278.919 97.2798 278.919C97.2798 278.919 98.0034 279.281 99.45 280.02C100.96 280.775 102.69 281.42 104.64 282.002C106.59 282.569 108.667 282.852 110.884 282.852C115.099 282.852 118.449 282.034 120.934 280.414C123.403 278.747 124.771 275.916 125.039 271.921L126.155 253.016L126.157 253.017ZM128.044 232.429C126.314 231.69 124.568 231.328 122.776 231.328C117.491 231.328 113.827 233.719 111.814 238.516C109.8 243.297 108.794 248.834 108.794 255.093C108.794 258.632 109.738 260.394 111.609 260.394C113.543 260.394 115.651 258.6 117.932 254.999C120.212 251.414 122.273 247.387 124.144 242.921C126 238.438 127.306 234.947 128.045 232.43L128.044 232.429ZM158.242 244.13C158.855 240.812 159.83 237.525 161.183 234.237C162.473 230.982 164.281 228.213 166.609 225.902C168.921 223.605 171.673 222.457 174.834 222.457C176.407 222.457 177.681 222.646 178.656 223.008C179.647 223.338 180.134 224.172 180.134 225.493L179.945 234.914C179.647 236.172 179.191 236.802 178.609 236.802C178.121 236.802 177.272 236.55 176.077 236.047C174.881 235.544 173.891 235.276 173.135 235.276C170.509 235.276 168.417 236.314 166.813 238.39C165.208 240.466 163.62 243.266 162.016 246.804C160.081 251.192 158.76 254.951 158.052 258.097C157.376 261.227 156.935 265.332 156.715 270.396C156.715 271.528 156.149 272.094 155.017 272.094H145.564C144.573 272.094 144.086 271.528 144.086 270.396L144.275 269.609L146.524 225.288C146.524 224.156 147.106 223.589 148.238 223.589H157.643C158.681 223.589 159.2 224.156 159.2 225.288L158.241 244.13L158.242 244.13ZM183.941 248.078C184.271 243.501 185.341 239.271 187.165 235.386C188.974 231.485 191.537 228.356 194.872 225.996C198.206 223.637 202.169 222.458 206.777 222.458C211.229 222.458 214.987 223.386 218.054 225.226C221.153 227.035 223.465 229.614 225.006 232.948C226.563 236.267 227.35 240.136 227.35 244.555C227.35 249.462 226.501 254.133 224.802 258.553C223.088 262.973 220.493 266.59 217.016 269.39C213.525 272.205 209.31 273.605 204.324 273.605C199.763 273.605 195.941 272.708 192.874 270.915C189.791 269.106 187.511 266.574 186.001 263.287C184.507 260 183.752 256.131 183.752 251.664C183.752 249.918 183.815 248.723 183.941 248.078H183.941ZM197.152 248.078C197.027 248.975 196.963 250.374 196.963 252.278C196.963 255.502 197.545 258.285 198.693 260.645C199.841 262.988 201.839 264.168 204.701 264.168C210.866 264.168 213.949 257.483 213.949 244.115C213.949 235.968 211.495 231.894 206.588 231.894C201.004 231.863 197.859 237.257 197.151 248.078L197.152 248.078ZM259.828 251.507C258.727 255.093 257.296 258.491 255.55 261.714C253.741 264.97 251.476 267.66 248.771 269.767C246.034 271.953 242.92 273.038 239.428 273.038C236.723 273.038 234.568 272.22 232.964 270.569C231.376 268.934 230.573 266.795 230.573 264.152C230.573 263.932 230.605 263.649 230.668 263.271C230.731 262.91 230.762 262.626 230.762 262.454L232.649 225.288C232.649 224.03 233.278 223.401 234.536 223.401H244.115C245.294 223.401 245.876 224.03 245.876 225.288L243.8 254.354V255.47C243.8 257.735 244.477 258.867 245.829 258.867C248.471 258.867 251.617 255.219 255.266 247.905C257.515 243.832 258.977 240.324 259.654 237.399C260.362 234.489 260.849 230.448 261.116 225.289C261.116 224.031 261.745 223.401 263.02 223.401H272.267C273.29 223.401 273.793 224.03 273.793 225.289L273.604 225.839L271.497 270.396C271.497 271.529 270.868 272.095 269.594 272.095H260.204C259.182 272.095 258.679 271.529 258.679 270.396L259.826 251.507H259.828ZM293.407 243.03C295.279 237.132 297.685 232.241 300.626 228.324C303.551 224.408 307.514 222.458 312.485 222.458C317.313 222.458 320.49 224.156 322.047 227.569C323.604 230.966 324.375 235.433 324.375 240.953C324.375 244.366 323.856 247.937 322.834 251.679C321.796 255.423 320.27 258.914 318.241 262.154C316.228 265.394 313.712 268.02 310.708 270.018C307.719 272.031 304.354 273.038 300.595 273.038C297.04 273.038 294.146 272.409 291.944 271.15L290.78 290.055C290.78 291.171 290.214 291.722 289.082 291.722H279.645C278.654 291.722 278.167 291.156 278.167 290.024L279.268 269.609L281.532 225.287C281.532 224.155 282.098 223.589 283.231 223.589H292.667C293.69 223.589 294.193 224.155 294.193 225.287L293.407 243.029V243.03ZM292.117 263.57C293.249 263.963 294.948 264.168 297.182 264.168C302.513 263.979 306.241 261.62 308.364 257.075C310.487 252.529 311.541 247.213 311.541 241.127C311.541 237.226 310.534 235.276 308.506 235.276C307.279 235.276 306.225 235.701 305.329 236.534C304.463 237.352 303.457 238.563 302.293 240.167C296.301 248.063 292.919 255.864 292.117 263.57V263.57Z" fill="black"/>
    </symbol>
    <symbol id="burger" viewBox="0 0 18 12">
        <path d="M0 12H18V10H0V12ZM0 7H18V5H0V7ZM0 0V2H18V0H0Z"/>
    </symbol>
    <symbol id="close" viewBox="0 0 18 18">
        <path d="M9.99418 9.00077L17.7938 1.20108C18.0684 0.926475 18.0684 0.481257 17.7938 0.206686C17.5192 -0.0678838 17.074 -0.0679189 16.7994 0.206686L8.99975 8.00638L1.2001 0.206686C0.925497 -0.0679189 0.480279 -0.0679189 0.20571 0.206686C-0.0688602 0.481292 -0.0688954 0.92651 0.20571 1.20108L8.00535 9.00074L0.20571 16.8004C-0.0688954 17.075 -0.0688954 17.5203 0.20571 17.7948C0.342994 17.9321 0.522959 18.0007 0.702923 18.0007C0.882888 18.0007 1.06282 17.9321 1.20014 17.7948L8.99975 9.99516L16.7994 17.7948C16.9367 17.9321 17.1166 18.0007 17.2966 18.0007C17.4766 18.0007 17.6565 17.9321 17.7938 17.7948C18.0684 17.5202 18.0684 17.075 17.7938 16.8004L9.99418 9.00077Z"/>
    </symbol>
    <symbol id="evis-logo-white" viewBox="0 0 420 420">
        <path fill-rule="evenodd" clip-rule="evenodd" d="M59.801 319.58C69.0602 329.209 71.75 330.716 80.8934 338.329C73.1972 335.225 63.7562 326.976 57.2282 321.337C50.1536 315.225 42.9848 310.598 40.8062 297.258L54.7238 314.674C56.2646 316.495 58.1396 317.852 59.801 319.58ZM259.405 361.55C266.842 358.735 275.322 356.366 283.299 353.266C305.082 344.799 327.807 331.88 344.601 317.881C357.083 307.478 366.012 298.007 376.159 284.429C390.714 264.956 390.383 255.901 397.506 241.69C396.948 257.445 387.825 279.046 381.325 290.445C365.446 318.291 340.35 337.315 310.722 348.984C299.068 353.574 273.155 361.493 259.404 361.549L259.405 361.55ZM302.978 336.241C305.812 335.318 313.593 329.33 317.044 326.999C329.677 318.464 345.566 304.455 354.907 292.345C367.143 276.48 374.113 266.115 381.27 246.177C382.027 244.066 383.231 238.436 384.498 236.941C385.611 235.628 390.589 233.261 392.01 232.672C388.468 257.003 369.511 284.576 351.743 301.693C337.854 315.073 321.288 328.596 302.978 336.241ZM148.434 358.265C132.923 357.437 106.86 345.682 95.4308 338.945C83.0456 331.645 74.219 324.259 64.7954 314.584C63.287 313.036 61.6256 311.792 60.125 310.111C54.2516 303.535 46.0088 291.849 41.399 283.831C35.0546 272.798 34.3154 271.441 32.2196 257.164C28.9592 234.953 26.6462 212.464 29.6846 190.262C31.1486 214.713 31.1708 231.124 37.829 254.035C50.7566 298.516 81.7784 329.054 123.008 348.064C131.335 351.903 140.427 354.733 148.434 358.265ZM375.391 240.622C371.653 259.721 354.381 281.948 342.919 295.37C317.651 324.959 269.632 348.227 230.98 356.75C199.829 363.619 187.627 362.075 158.215 353.647C85.6802 332.862 42.8666 285.92 37.9538 215.061C36.2378 190.312 34.6136 159.206 46.0292 139.293C66.1034 104.276 96.6194 76.0871 137.98 57.9371C207.627 27.3749 278.658 41.9117 337.166 85.5545C341.129 88.5107 345.442 91.9505 349.257 95.1425L360.454 105.585C372.978 124.104 382.636 190.772 380.798 214.247C380.37 219.719 379.596 223.927 379.083 227.18C376.628 242.771 331.031 243.469 313.063 256.388C280.081 280.104 317.036 262.964 347.494 251.149C365.041 244.342 377.034 236.15 375.391 240.622ZM395.683 205.948C395.394 218.244 395.946 222.616 386.417 226.942C389.73 199.983 387.091 181.546 382.613 155.163C381.439 148.246 379.108 139.962 378.434 133.376C383.458 139.39 393.046 167.596 394.277 177.604C395.34 186.248 395.888 197.2 395.683 205.948ZM29.294 287.636C24.3164 280.92 16.4156 259.799 14.366 252.575C2.73863 211.583 3.59063 153.35 24.9272 118.714C23.9312 124.776 17.6798 140.506 14.6456 158.711C12.002 174.569 11.0864 190.383 11.6096 206.752C13.1144 253.837 27.5978 261.916 31.0484 289.6L29.294 287.636ZM399.181 159.389C394.458 132.145 384.877 109.068 369.451 87.4433C361.429 76.1993 354.148 69.8087 345.222 61.0001C362.31 70.7675 387.348 99.0521 396.938 117.442C403.002 129.068 408.416 142.775 410.817 157.718C412.662 169.205 412.776 196.22 405.97 203.864L399.181 159.389ZM56.912 110.072C60.2966 101.859 71.6564 88.1069 77.3462 83.1263C81.2486 79.7105 81.7334 78.0731 89.825 71.4461C108.635 56.0417 149.242 38.9807 174.986 38.6225C145.071 46.8845 134.679 49.7099 107.625 65.8931L86.696 80.8019C72.8036 91.8875 67.2788 99.8795 56.912 110.072ZM21.8954 232.049C15.482 219.881 19.5236 170.251 22.5188 154.985C26.9234 132.533 34.5302 111.397 44.882 93.9797C53.5196 79.4465 76.0496 64.8833 91.1918 56.1497C107.985 46.4633 129.075 36.7259 149.488 31.1285C172.837 24.7259 199.537 21.5849 225.138 22.1633C245.023 22.6127 280.71 27.1805 295.522 35.5397C310.214 43.8311 332.099 58.9817 344.268 70.1093C356.55 81.3395 373.476 101.874 378.919 118.259C376.955 114.848 372.975 109.476 370.464 106.429C360.815 94.7195 360.258 87.4901 342.773 73.2713C294.056 33.6557 210.767 20.3495 149.306 35.8499C129.847 40.7573 105.755 50.4869 92.351 60.6173C76.3766 72.6899 64.5044 84.1757 52.9958 102.115C41.1002 120.656 40.7168 128.498 34.7354 145.541C33.0422 150.365 30.8174 154.737 28.9796 159.802C19.9592 184.661 21.2654 204.483 21.8954 232.049ZM71.183 59.9417C74.5784 55.6193 81.9644 49.2947 87.044 45.3275C120.002 19.5887 157.374 5.66032 200.971 7.17292C210.323 7.49752 219.492 8.53072 228.397 10.2329C233.177 11.1461 246.355 13.8533 250.956 16.1777L252.144 16.9187C232.32 15.8687 217.21 14.2973 196.807 15.8531C162.139 18.4961 137.772 25.6193 107.299 39.7313C89.915 47.7821 82.0856 54.4259 71.183 59.9417ZM49.382 324.379C53.5046 326.863 62.8604 336.748 80.297 346.604C112.737 364.939 151.705 372.394 189.304 371.888C198.029 371.77 207.589 370.25 215.97 370.648C260.209 372.746 309.814 363.133 345.095 339.219C357.903 330.538 364.338 323.759 373.569 313.502C392.342 292.646 405.728 259.338 406.302 225.058C406.551 210.243 411.174 217.594 416.683 195.745C420.627 180.106 419.706 163.025 416.066 147.576C403.641 94.8425 357.849 54.1157 313.558 34.1501C307.32 31.3379 300.635 29.3993 294.406 26.6465C272.391 16.9151 264.858 10.6001 235.716 4.45672C181.346 -7.00508 131.461 3.74573 88.0628 35.5013C78.2816 42.6581 67.9544 52.4393 59.6834 61.2851C49.7738 71.8829 47.0198 79.8089 35.9834 90.9287C32.1578 94.7831 27.4004 101.266 23.9972 106.454C8.29283 130.395 0.409432 155.218 0.0200316 190.081C-0.949568 276.863 33.5828 301.339 37.7774 313.232C49.2674 345.809 58.0862 366.425 80.1014 392.626C151.655 477.781 52.0244 334.828 49.3808 324.378L49.382 324.379Z"/>
        <path fill-rule="evenodd" clip-rule="evenodd" d="M67.53 208.033V119.995H120.518V134.07H84.3648V155.873H118.862V169.534H84.3648V193.958H120.518V208.033H67.53V208.033ZM179.785 208.033H157.822L130.913 119.995H149.704L164.63 173.006L169.413 190.393L174.404 171.994L189.146 119.994H206.809L179.785 208.032V208.033ZM238.316 152.423H218.998V139.589H255.151V195.2H274.884V208.032H216.652V195.2H238.316V152.422L238.316 152.423ZM351.446 181.401C351.446 186.207 350.549 190.37 348.778 193.912C347.007 197.477 344.524 200.397 341.35 202.72C338.153 205.02 334.358 206.745 329.965 207.872C325.55 208.998 320.766 209.55 315.545 209.55C310.923 209.55 306.461 209.274 302.138 208.746C297.837 208.217 293.582 207.342 289.351 206.101V189.68C291.421 190.416 293.56 191.083 295.813 191.727C298.045 192.348 300.298 192.923 302.575 193.383C304.852 193.866 307.105 194.234 309.336 194.51C311.59 194.786 313.751 194.924 315.868 194.924C319.019 194.924 321.686 194.648 323.871 194.118C326.079 193.566 327.873 192.831 329.252 191.865C330.655 190.922 331.667 189.795 332.288 188.484C332.909 187.173 333.231 185.724 333.231 184.161C333.231 181.999 332.61 180.182 331.368 178.733C330.149 177.284 328.516 175.973 326.492 174.869C324.469 173.742 322.169 172.73 319.593 171.834C316.994 170.937 314.372 169.971 311.704 168.936C309.037 167.901 306.415 166.728 303.816 165.417C301.24 164.129 298.94 162.519 296.916 160.587C294.892 158.655 293.26 156.355 292.04 153.665C290.798 150.997 290.177 147.777 290.177 144.005C290.177 140.555 290.798 137.267 292.063 134.162C293.328 131.08 295.306 128.366 297.997 126.066C300.688 123.744 304.138 121.904 308.369 120.524C312.601 119.166 317.683 118.477 323.663 118.477C325.411 118.477 327.251 118.546 329.159 118.707C331.068 118.868 332.954 119.075 334.817 119.328C336.68 119.558 338.474 119.856 340.199 120.202C341.947 120.524 343.534 120.869 344.96 121.237V136.416C343.534 135.864 341.947 135.381 340.245 134.921C338.543 134.484 336.772 134.07 334.955 133.748C333.139 133.403 331.299 133.15 329.459 132.966C327.619 132.782 325.871 132.69 324.215 132.69C321.295 132.69 318.834 132.92 316.81 133.403C314.786 133.863 313.13 134.53 311.819 135.358C310.508 136.186 309.565 137.198 308.99 138.417C308.415 139.636 308.116 140.97 308.116 142.464C308.116 144.304 308.737 145.891 309.979 147.202C311.197 148.536 312.853 149.732 314.878 150.767C316.924 151.825 319.247 152.814 321.823 153.734C324.422 154.653 327.067 155.642 329.78 156.701C332.494 157.758 335.139 158.954 337.738 160.311C340.314 161.645 342.637 163.301 344.684 165.233C346.708 167.165 348.364 169.442 349.583 172.064C350.825 174.686 351.445 177.79 351.445 181.401H351.446Z"/>
        <path fill-rule="evenodd" clip-rule="evenodd" d="M256.574 120.883C256.574 122.378 256.298 123.781 255.769 125.069C255.217 126.38 254.482 127.53 253.516 128.496C252.527 129.461 251.4 130.22 250.089 130.772C248.802 131.348 247.375 131.624 245.857 131.624C244.317 131.624 242.891 131.348 241.557 130.772C240.223 130.22 239.096 129.461 238.131 128.496C237.142 127.53 236.406 126.38 235.854 125.069C235.324 123.781 235.048 122.378 235.048 120.883C235.048 119.411 235.324 118.008 235.854 116.72C236.406 115.409 237.141 114.26 238.131 113.27C239.096 112.281 240.223 111.499 241.557 110.947C242.891 110.372 244.317 110.096 245.857 110.096C247.375 110.096 248.802 110.372 250.089 110.947C251.4 111.499 252.527 112.281 253.516 113.27C254.482 114.259 255.217 115.409 255.769 116.72C256.298 118.008 256.574 119.411 256.574 120.883Z"/>
        <path d="M125.774 252.336C121.307 265.689 114.953 272.358 106.727 272.358C98.9104 272.358 95.0098 266.884 95.0098 255.922C95.0098 252.178 95.4814 248.325 96.4408 244.378C97.3528 240.383 98.8 236.686 100.766 233.258C102.732 229.845 105.264 227.061 108.331 224.907C111.382 222.815 114.921 221.776 118.979 221.776C121.479 221.776 124.625 222.705 128.431 224.576C128.431 223.459 128.856 222.909 129.721 222.909H138.812C139.818 222.909 140.322 223.412 140.322 224.434L140.148 228.759L137.648 273.127C137.412 279.544 134.895 284.137 130.145 286.89C125.411 289.657 119.544 291.042 112.577 291.042C111.162 291.042 109.054 290.884 106.255 290.554C103.455 290.239 100.939 289.673 98.6896 288.871C96.4876 288.116 95.371 287.062 95.371 285.741C95.2612 285.741 95.1982 285.379 95.1982 284.64C95.1982 283.162 95.3398 281.73 95.6068 280.331C95.89 278.931 96.3148 278.239 96.8968 278.239C96.8968 278.239 97.6204 278.601 99.067 279.34C100.577 280.095 102.307 280.74 104.257 281.322C106.207 281.888 108.284 282.171 110.501 282.171C114.716 282.171 118.066 281.353 120.551 279.733C123.02 278.066 124.388 275.235 124.656 271.24L125.772 252.336L125.774 252.336ZM127.661 231.748C125.931 231.009 124.185 230.647 122.393 230.647C117.108 230.647 113.444 233.038 111.431 237.835C109.417 242.617 108.411 248.153 108.411 254.413C108.411 257.952 109.355 259.713 111.226 259.713C113.16 259.713 115.268 257.92 117.549 254.319C119.829 250.733 121.89 246.706 123.761 242.24C125.617 237.757 126.923 234.266 127.662 231.75L127.661 231.748ZM157.859 243.45C158.472 240.131 159.447 236.844 160.8 233.557C162.09 230.301 163.898 227.533 166.226 225.221C168.538 222.925 171.29 221.776 174.451 221.776C176.024 221.776 177.298 221.965 178.273 222.327C179.264 222.657 179.751 223.491 179.751 224.812L179.562 234.234C179.264 235.492 178.808 236.121 178.226 236.121C177.738 236.121 176.889 235.869 175.694 235.366C174.498 234.863 173.508 234.595 172.752 234.595C170.126 234.595 168.034 235.633 166.43 237.709C164.825 239.785 163.237 242.585 161.633 246.124C159.698 250.512 158.377 254.271 157.669 257.416C156.993 260.546 156.552 264.651 156.332 269.715C156.332 270.847 155.766 271.414 154.634 271.414H145.181C144.19 271.414 143.703 270.847 143.703 269.715L143.892 268.929L146.141 224.607C146.141 223.475 146.723 222.909 147.855 222.909H157.26C158.298 222.909 158.817 223.475 158.817 224.607L157.858 243.449L157.859 243.45ZM183.558 247.398C183.888 242.821 184.958 238.59 186.782 234.705C188.591 230.805 191.154 227.675 194.489 225.316C197.823 222.957 201.786 221.777 206.394 221.777C210.846 221.777 214.604 222.705 217.671 224.545C220.77 226.354 223.082 228.933 224.623 232.267C226.18 235.586 226.967 239.455 226.967 243.874C226.967 248.781 226.118 253.453 224.419 257.872C222.705 262.292 220.11 265.909 216.633 268.709C213.142 271.524 208.927 272.924 203.941 272.924C199.38 272.924 195.558 272.028 192.491 270.234C189.408 268.426 187.128 265.893 185.618 262.606C184.124 259.32 183.369 255.45 183.369 250.984C183.369 249.238 183.432 248.043 183.558 247.398H183.558ZM196.769 247.398C196.644 248.294 196.58 249.694 196.58 251.597C196.58 254.821 197.162 257.605 198.31 259.964C199.458 262.308 201.456 263.487 204.318 263.487C210.483 263.487 213.566 256.803 213.566 243.434C213.566 235.287 211.112 231.213 206.205 231.213C200.621 231.182 197.476 236.577 196.768 247.397L196.769 247.398ZM259.445 250.827C258.344 254.413 256.913 257.81 255.167 261.034C253.358 264.289 251.093 266.979 248.388 269.086C245.651 271.273 242.537 272.358 239.045 272.358C236.34 272.358 234.185 271.54 232.581 269.889C230.993 268.253 230.19 266.114 230.19 263.472C230.19 263.251 230.222 262.968 230.285 262.591C230.348 262.229 230.379 261.946 230.379 261.773L232.266 224.608C232.266 223.35 232.895 222.72 234.153 222.72H243.732C244.911 222.72 245.493 223.349 245.493 224.608L243.417 253.673V254.79C243.417 257.054 244.094 258.187 245.446 258.187C248.088 258.187 251.234 254.538 254.883 247.225C257.132 243.151 258.594 239.644 259.271 236.719C259.979 233.809 260.466 229.767 260.733 224.608C260.733 223.35 261.362 222.721 262.637 222.721H271.884C272.907 222.721 273.41 223.35 273.41 224.608L273.221 225.159L271.114 269.716C271.114 270.848 270.485 271.414 269.211 271.414H259.821C258.799 271.414 258.296 270.848 258.296 269.716L259.443 250.827H259.445ZM293.024 242.349C294.896 236.451 297.302 231.56 300.243 227.644C303.168 223.728 307.131 221.777 312.102 221.777C316.93 221.777 320.107 223.476 321.664 226.888C323.221 230.286 323.992 234.753 323.992 240.273C323.992 243.685 323.473 247.256 322.451 250.999C321.413 254.742 319.887 258.234 317.858 261.474C315.845 264.714 313.329 267.34 310.325 269.337C307.336 271.351 303.971 272.357 300.212 272.357C296.657 272.357 293.763 271.728 291.561 270.469L290.397 289.374C290.397 290.491 289.831 291.042 288.699 291.042H279.262C278.271 291.042 277.784 290.475 277.784 289.343L278.885 268.928L281.149 224.607C281.149 223.474 281.715 222.908 282.848 222.908H292.284C293.307 222.908 293.81 223.474 293.81 224.607L293.024 242.348V242.349ZM291.734 262.89C292.866 263.283 294.565 263.487 296.799 263.487C302.13 263.298 305.858 260.94 307.981 256.394C310.104 251.848 311.158 246.532 311.158 240.446C311.158 236.545 310.151 234.595 308.123 234.595C306.896 234.595 305.842 235.02 304.946 235.854C304.08 236.671 303.074 237.882 301.91 239.487C295.918 247.382 292.536 255.183 291.734 262.89V262.89Z"/>
    </symbol>
</svg>